<svg width="32" height="32" viewBox="0 0 32 32" fill="none" xmlns="http://www.w3.org/2000/svg">
<path fill-rule="evenodd" clip-rule="evenodd" d="M1 3C1 2.44772 1.44772 2 2 2H4.25633C4.72471 2 5.17823 2.16439 5.53783 2.4645C5.89742 2.76461 6.14029 3.18141 6.22407 3.64223L9.56185 22H23C23.5523 22 24 22.4477 24 23C24 23.5523 23.5523 24 23 24H8.72727C8.24399 24 7.82985 23.6544 7.7434 23.1789L4.25633 4H2C1.44772 4 1 3.55228 1 3Z" fill="black"/>
<path fill-rule="evenodd" clip-rule="evenodd" d="M10 24C9.17157 24 8.5 24.6716 8.5 25.5C8.5 26.3284 9.17157 27 10 27C10.8284 27 11.5 26.3284 11.5 25.5C11.5 24.6716 10.8284 24 10 24ZM6.5 25.5C6.5 23.567 8.067 22 10 22C11.933 22 13.5 23.567 13.5 25.5C13.5 27.433 11.933 29 10 29C8.067 29 6.5 27.433 6.5 25.5Z" fill="black"/>
<path fill-rule="evenodd" clip-rule="evenodd" d="M23 24C22.1716 24 21.5 24.6716 21.5 25.5C21.5 26.3284 22.1716 27 23 27C23.8284 27 24.5 26.3284 24.5 25.5C24.5 24.6716 23.8284 24 23 24ZM19.5 25.5C19.5 23.567 21.067 22 23 22C24.933 22 26.5 23.567 26.5 25.5C26.5 27.433 24.933 29 23 29C21.067 29 19.5 27.433 19.5 25.5Z" fill="black"/>
<path fill-rule="evenodd" clip-rule="evenodd" d="M5 8C5 7.44772 5.44772 7 6 7H27C27.2965 7 27.5778 7.1316 27.7678 7.35925C27.9577 7.58691 28.0369 7.88714 27.9839 8.17889L26.4643 16.5367C26.3386 17.2279 25.9743 17.8531 25.4349 18.3033C24.8955 18.7534 24.2152 19 23.5127 19H7.81818C7.26589 19 6.81818 18.5523 6.81818 18C6.81818 17.4477 7.26589 17 7.81818 17H23.5127C23.7469 17 23.9736 16.9178 24.1534 16.7678C24.3332 16.6177 24.4546 16.4093 24.4965 16.1789L25.8018 9H6C5.44772 9 5 8.55228 5 8Z" fill="black"/>
</svg>
