<svg width="32" height="32" viewBox="0 0 32 32" fill="none" xmlns="http://www.w3.org/2000/svg">
<path fill-rule="evenodd" clip-rule="evenodd" d="M26.8707 3.62116C27.2095 3.48808 27.5781 3.44996 27.9369 3.51091C28.2958 3.57187 28.6312 3.72959 28.907 3.96708C29.1828 4.20456 29.3886 4.51281 29.5021 4.85861C29.6157 5.20441 29.6328 5.57464 29.5515 5.92941L28.612 5.71411L29.5515 5.92942L24.8498 26.446C24.7724 26.7837 24.6086 27.0955 24.3744 27.3509C24.1403 27.6062 23.8438 27.7964 23.5141 27.9027C23.1843 28.009 22.8326 28.0279 22.4934 27.9574C22.1542 27.8869 21.8391 27.7295 21.579 27.5007L10.5408 17.787L4.14016 16.5069C3.71652 16.4222 3.3317 16.2025 3.04329 15.8809C2.75488 15.5592 2.57839 15.1528 2.54022 14.7224C2.50205 14.2921 2.60425 13.861 2.83154 13.4935C3.05883 13.1261 3.39898 12.8422 3.80109 12.6842L4.16674 13.615L3.80109 12.6842L26.8707 3.62116ZM27.602 5.48267L4.5324 14.5457L11.1961 15.8785C11.3685 15.9129 11.5287 15.9922 11.6606 16.1083L22.9003 25.9992L27.602 5.48267Z" fill="white"/>
<path fill-rule="evenodd" clip-rule="evenodd" d="M28.8247 3.98563C29.1481 4.43335 29.0472 5.05844 28.5995 5.3818L11.5855 17.6697C11.1378 17.9931 10.5127 17.8922 10.1893 17.4445C9.86596 16.9968 9.96678 16.3717 10.4145 16.0483L27.4285 3.76044C27.8763 3.43708 28.5014 3.5379 28.8247 3.98563Z" fill="white"/>
<path fill-rule="evenodd" clip-rule="evenodd" d="M11 15.859C11.5523 15.859 12 16.3067 12 16.859V24.998L12.7071 25.7051L12 24.998L15.9063 21.0917C16.2968 20.7012 16.93 20.7012 17.3205 21.0917C17.711 21.4822 17.711 22.1154 17.3205 22.5059L13.4142 26.4122L12.7487 25.7467L13.4142 26.4122C13.1345 26.6919 12.7781 26.8824 12.3902 26.9595C12.0022 27.0367 11.6001 26.9971 11.2346 26.8457C10.8692 26.6943 10.5568 26.438 10.3371 26.1091C10.1173 25.7802 10 25.3935 10 24.998V16.859C10 16.3067 10.4477 15.859 11 15.859Z" fill="white"/>
</svg>
