<svg width="32" height="32" viewBox="0 0 32 32" fill="none" xmlns="http://www.w3.org/2000/svg">
<path fill-rule="evenodd" clip-rule="evenodd" d="M16 5C9.92487 5 5 9.92487 5 16C5 22.0751 9.92487 27 16 27C22.0751 27 27 22.0751 27 16C27 9.92487 22.0751 5 16 5ZM3 16C3 8.8203 8.8203 3 16 3C23.1797 3 29 8.8203 29 16C29 23.1797 23.1797 29 16 29C8.8203 29 3 23.1797 3 16Z" fill="white"/>
<path fill-rule="evenodd" clip-rule="evenodd" d="M16.1716 11.1717C16.9217 10.4216 17.9391 10.0001 19 10.0001H21C21.5523 10.0001 22 10.4478 22 11.0001C22 11.5524 21.5523 12.0001 21 12.0001H19C18.4696 12.0001 17.9609 12.2108 17.5858 12.5859C17.2107 12.961 17 13.4697 17 14.0001V28.0001C17 28.5524 16.5523 29.0001 16 29.0001C15.4477 29.0001 15 28.5524 15 28.0001V14.0001C15 12.9393 15.4214 11.9218 16.1716 11.1717Z" fill="white"/>
<path fill-rule="evenodd" clip-rule="evenodd" d="M11 18.0001C11 17.4478 11.4477 17.0001 12 17.0001H20C20.5523 17.0001 21 17.4478 21 18.0001C21 18.5524 20.5523 19.0001 20 19.0001H12C11.4477 19.0001 11 18.5524 11 18.0001Z" fill="white"/>
</svg>
