<svg width="144" height="50" viewBox="0 0 144 50" fill="none" xmlns="http://www.w3.org/2000/svg">
<circle cx="119" cy="25" r="25" fill="white"/>
<path d="M0 9H5.796V25.416L17.82 9H23.292V34.2H17.532V17.82L5.508 34.2H0V9Z" fill="white"/>
<path d="M43.9304 24.084C46.2104 24.852 47.3504 26.388 47.3504 28.692C47.3504 30.444 46.6904 31.8 45.3704 32.76C44.0504 33.72 42.0824 34.2 39.4664 34.2H29.1344V14.832H39.0344C41.4584 14.832 43.3544 15.276 44.7224 16.164C46.0904 17.028 46.7744 18.252 46.7744 19.836C46.7744 20.796 46.5224 21.648 46.0184 22.392C45.5384 23.112 44.8424 23.676 43.9304 24.084ZM34.2824 22.788H38.5304C40.4984 22.788 41.4824 22.092 41.4824 20.7C41.4824 19.332 40.4984 18.648 38.5304 18.648H34.2824V22.788ZM38.9984 30.384C41.0624 30.384 42.0944 29.676 42.0944 28.26C42.0944 27.516 41.8544 26.976 41.3744 26.64C40.8944 26.28 40.1384 26.1 39.1064 26.1H34.2824V30.384H38.9984Z" fill="white"/>
<path d="M59.0529 14.544C62.0529 14.544 64.3569 15.264 65.9649 16.704C67.5729 18.12 68.3769 20.268 68.3769 23.148V34.2H63.1209V31.788C62.0649 33.588 60.0969 34.488 57.2169 34.488C55.7289 34.488 54.4329 34.236 53.3289 33.732C52.2489 33.228 51.4209 32.532 50.8449 31.644C50.2689 30.756 49.9809 29.748 49.9809 28.62C49.9809 26.82 50.6529 25.404 51.9969 24.372C53.3649 23.34 55.4649 22.824 58.2969 22.824H62.7609C62.7609 21.6 62.3889 20.664 61.6449 20.016C60.9009 19.344 59.7849 19.008 58.2969 19.008C57.2649 19.008 56.2449 19.176 55.2369 19.512C54.2529 19.824 53.4129 20.256 52.7169 20.808L50.7009 16.884C51.7569 16.14 53.0169 15.564 54.4809 15.156C55.9689 14.748 57.4929 14.544 59.0529 14.544ZM58.6209 30.708C59.5809 30.708 60.4329 30.492 61.1769 30.06C61.9209 29.604 62.4489 28.944 62.7609 28.08V26.1H58.9089C56.6049 26.1 55.4529 26.856 55.4529 28.368C55.4529 29.088 55.7289 29.664 56.2809 30.096C56.8569 30.504 57.6369 30.708 58.6209 30.708Z" fill="white"/>
<path d="M73.2555 14.832H78.8355V22.392H87.2595V14.832H92.8755V34.2H87.2595V26.964H78.8355V34.2H73.2555V14.832Z" fill="white"/>
<path d="M107.324 34.488C105.284 34.488 103.448 34.068 101.816 33.228C100.208 32.364 98.9476 31.176 98.0356 29.664C97.1236 28.152 96.6676 26.436 96.6676 24.516C96.6676 22.596 97.1236 20.88 98.0356 19.368C98.9476 17.856 100.208 16.68 101.816 15.84C103.448 14.976 105.284 14.544 107.324 14.544C109.364 14.544 111.188 14.976 112.796 15.84C114.404 16.68 115.664 17.856 116.576 19.368C117.488 20.88 117.944 22.596 117.944 24.516C117.944 26.436 117.488 28.152 116.576 29.664C115.664 31.176 114.404 32.364 112.796 33.228C111.188 34.068 109.364 34.488 107.324 34.488ZM107.324 29.88C108.764 29.88 109.94 29.4 110.852 28.44C111.788 27.456 112.256 26.148 112.256 24.516C112.256 22.884 111.788 21.588 110.852 20.628C109.94 19.644 108.764 19.152 107.324 19.152C105.884 19.152 104.696 19.644 103.76 20.628C102.824 21.588 102.356 22.884 102.356 24.516C102.356 26.148 102.824 27.456 103.76 28.44C104.696 29.4 105.884 29.88 107.324 29.88Z" fill="black"/>
<path d="M136.602 24.084C138.882 24.852 140.022 26.388 140.022 28.692C140.022 30.444 139.362 31.8 138.042 32.76C136.722 33.72 134.754 34.2 132.138 34.2H121.806V14.832H131.706C134.13 14.832 136.026 15.276 137.394 16.164C138.762 17.028 139.446 18.252 139.446 19.836C139.446 20.796 139.194 21.648 138.69 22.392C138.21 23.112 137.514 23.676 136.602 24.084ZM126.954 22.788H131.202C133.17 22.788 134.154 22.092 134.154 20.7C134.154 19.332 133.17 18.648 131.202 18.648H126.954V22.788ZM131.67 30.384C133.734 30.384 134.766 29.676 134.766 28.26C134.766 27.516 134.526 26.976 134.046 26.64C133.566 26.28 132.81 26.1 131.778 26.1H126.954V30.384H131.67Z" fill="black"/>
</svg>
